HIERARCHY
ROOT hip
{
	OFFSET 0.000000 0.000000 0.000000 
	CHANNELS 6 Xposition Yposition Zposition Xrotation Zrotation Yrotation
	JOINT abdomen
	{
		OFFSET 0.000000 3.402643 0.000000 
		CHANNELS 3 Xrotation Zrotation Yrotation
		JOINT chest
		{
			OFFSET 0.000000 8.438565 -0.680529 
			CHANNELS 3 Xrotation Zrotation Yrotation
			JOINT neck
			{
				OFFSET 0.000000 10.207942 -0.272212 
				CHANNELS 3 Xrotation Zrotation Yrotation
				JOINT head
				{
					OFFSET 0.000000 3.130431 0.000000 
					CHANNELS 3 Xrotation Zrotation Yrotation
					End Site
					{
						OFFSET 0.000000 3.130435 0.000000 
					}
				}
			}
			JOINT lCollar
			{
				OFFSET 3.470700 6.669187 -0.816635 
				CHANNELS 3 Yrotation Zrotation Xrotation
				JOINT lShldr
				{
					OFFSET 3.198488 0.000000 0.000000 
					CHANNELS 3 Zrotation Yrotation Xrotation
					JOINT lForeArm
					{
						OFFSET 10.139888 0.000000 0.000000 
						CHANNELS 3 Yrotation Zrotation Xrotation
						JOINT lHand
						{
							OFFSET 8.370511 0.000000 0.000000 
							CHANNELS 3 Zrotation Yrotation Xrotation
							End Site
							{
								OFFSET 4.083176 0.000000 0.000000 
							}
						}
					}
				}
			}
			JOINT rCollar
			{
				OFFSET -3.470700 6.669187 -0.816635 
				CHANNELS 3 Yrotation Zrotation Xrotation
				JOINT rShldr
				{
					OFFSET -3.198488 0.000000 0.000000 
					CHANNELS 3 Zrotation Yrotation Xrotation
					JOINT rForeArm
					{
						OFFSET -10.139888 0.000000 0.000000 
						CHANNELS 3 Yrotation Zrotation Xrotation
						JOINT rHand
						{
							OFFSET -8.370511 0.000000 0.000000 
							CHANNELS 3 Zrotation Yrotation Xrotation
							End Site
							{
								OFFSET -4.083176 0.000000 0.000000 
							}
						}
					}
				}
			}
		}
	}
	JOINT lThigh
	{
		OFFSET 5.308129 -1.633274 1.361059 
		CHANNELS 3 Xrotation Zrotation Yrotation
		JOINT lShin
		{
			OFFSET -2.041588 -20.007561 0.000000 
			CHANNELS 3 Xrotation Zrotation Yrotation
			JOINT lFoot
			{
				OFFSET 0.000000 -19.190928 -1.224953 
				CHANNELS 3 Xrotation Yrotation Zrotation
				End Site
				{
					OFFSET 0.000000 -2.449906 4.627600 
				}
			}
		}
	}
	JOINT rThigh
	{
		OFFSET -5.308129 -1.633274 1.361059 
		CHANNELS 3 Xrotation Zrotation Yrotation
		JOINT rShin
		{
			OFFSET 2.041588 -20.007561 0.000000 
			CHANNELS 3 Xrotation Zrotation Yrotation
			JOINT rFoot
			{
				OFFSET 0.000000 -19.190928 -1.224953 
				CHANNELS 3 Xrotation Yrotation Zrotation
				End Site
				{
					OFFSET 0.000000 -2.449906 4.627600 
				}
			}
		}
	}
}
MOTION
Frames: 15
Frame Time: 0.016667
0.740359 44.028934 -0.348675 2.548880 -0.380483 4.895110 -21.562901 0.565415 -0.716876 21.133400 2.587760 -0.207919 19.506500 19.100000 -10.093100 16.282600 11.969600 -5.179290 2.000000 -2.000000 0.000000 89.443703 -179.998993 3.876970 18.945499 -0.344158 0.044448 0.045134 0.012675 -132.391006 -2.000000 2.000000 0.000000 -94.306198 -174.436005 3.013150 -27.119400 0.336534 0.062325 -0.057724 -0.022741 -125.232002 -4.565762 -3.457936 -18.765118 14.225991 3.179965 1.035050 -11.209661 11.170766 1.973943 1.156902 2.324966 10.639176 3.565112 -4.168052 -0.134286 -11.584146 -15.440804 -2.949945 
0.739726 44.019554 -0.363167 2.402360 -0.224412 4.853830 -21.338400 0.545056 -0.632253 21.240900 2.617000 -0.163653 18.929800 19.105600 -10.260200 16.022499 11.962300 -5.218430 2.000000 -2.000000 0.000000 90.049500 -179.906006 5.508040 20.127199 -0.343215 0.047105 0.044759 0.006369 -134.645996 -2.000000 2.000000 0.000000 -95.371201 -174.242996 6.119120 -29.023800 0.334396 0.066334 -0.055947 -0.012477 -128.953003 -4.446493 -3.607021 -18.730825 14.342889 3.155714 1.070257 -11.253805 11.057230 1.933740 1.308156 2.165353 10.662626 3.564083 -4.167449 -0.104298 -11.570409 -15.454241 -2.942264 
0.747308 44.012108 -0.387968 2.236340 -0.204922 4.816180 -20.996901 0.613882 -0.643527 21.485399 2.685190 -0.161154 18.436199 19.316299 -10.290500 15.898200 12.082800 -5.182140 2.000000 -2.000000 0.000000 90.772697 -179.617996 7.627820 21.533400 -0.342022 0.050242 0.044654 -0.002626 -137.858994 -2.000000 2.000000 0.000000 83.074898 -5.794320 -170.395004 -31.279600 0.331692 0.070988 -0.054719 -0.010138 -133.298996 -4.337530 -3.628917 -18.694201 14.429198 3.172660 1.071247 -11.297661 11.120921 1.969487 1.453503 2.156733 10.715208 3.565107 -4.167588 -0.124497 -11.570534 -15.430917 -2.930513 
0.752438 43.998997 -0.422730 2.021490 -0.107355 4.800880 -20.606199 0.597540 -0.631550 21.749399 2.694730 -0.158363 17.841801 19.472401 -10.379600 15.700900 12.139600 -5.145030 2.000000 -2.000000 0.000000 -88.073997 -0.639948 -169.841995 23.467100 -0.340256 0.054504 0.045166 -0.013058 -141.589996 -2.000000 2.000000 0.000000 81.442497 -5.909600 -167.035995 -34.043301 0.328134 0.076540 -0.054434 0.003364 -138.123001 -4.238813 -3.721617 -18.667261 14.594358 3.196652 1.081942 -11.312222 11.117282 1.937616 0.783009 2.255523 10.755357 5.414361 -4.144785 -0.257296 -12.536440 -15.594143 -3.206576 
0.760973 43.989876 -0.469831 1.787110 0.058565 4.796760 -20.234800 0.563835 -0.665773 21.935200 2.733580 -0.187758 17.171499 19.468800 -10.485100 15.431000 12.141900 -5.134030 2.000000 -2.000000 0.000000 -86.568901 -0.819488 -167.274002 26.123301 -0.337599 0.060257 0.046279 -0.022920 -145.134995 -2.000000 2.000000 0.000000 79.458000 -5.927320 -163.587997 -37.051201 0.323962 0.082379 -0.055416 0.018038 -143.376999 -4.112333 -3.893332 -18.644632 14.745716 3.191532 1.089273 -11.356133 11.154176 1.959962 0.143620 2.297728 10.813314 7.281288 -4.144161 -0.400166 -13.553333 -15.680337 -3.487362 
0.765187 43.983574 -0.508567 1.611330 -0.019523 4.804130 -19.795099 0.539502 -0.702695 22.316299 2.615960 -0.202504 16.385300 19.665800 -10.557100 15.135900 12.250600 -5.091470 2.000000 -2.000000 0.000000 -84.555496 -1.056720 -164.285004 28.926100 -0.334509 0.066187 0.048239 -0.033819 -149.089996 -2.000000 2.000000 0.000000 77.248497 -5.837200 -160.268005 -40.127399 0.319384 0.088116 -0.057639 0.032079 -148.455002 -4.168692 -3.829461 -18.657385 15.117876 3.228096 1.099784 -11.559539 10.944777 1.931264 -0.035793 2.452430 10.814320 7.947737 -4.129098 -0.446778 -13.834314 -15.707520 -3.579869 
0.769195 43.963779 -0.541450 1.337890 -0.117156 4.801930 -19.297199 0.551975 -0.669104 22.765800 2.488390 -0.186909 15.565000 19.833300 -10.671800 14.790200 12.351600 -5.089420 2.000000 -2.000000 0.000000 -82.082298 -1.400480 -160.856003 31.885099 -0.330936 0.072275 0.060972 -0.055214 -153.376999 -2.000000 2.000000 0.000000 74.726303 -5.726740 -157.238998 -43.477001 0.314057 0.094073 -0.061262 0.046418 -153.738007 -4.145656 -3.775206 -18.668839 15.655504 3.288250 1.130726 -11.789558 10.967807 1.925024 0.016749 2.630065 10.829126 8.440626 -4.130533 -0.475512 -14.104060 -15.769430 -3.645998 
0.766577 43.950420 -0.594493 1.123050 0.039055 4.883580 -18.720800 0.525654 -0.683118 23.332800 2.516580 -0.190199 14.601300 19.945400 -10.842700 14.433100 12.424100 -5.078310 2.000000 -2.000000 0.000000 -79.316498 -2.039220 -158.266998 35.019901 -0.326813 0.078515 0.063835 -0.054207 -156.667999 -2.000000 2.000000 0.000000 71.911003 -5.273650 -154.533005 -46.826599 0.308392 0.099709 -0.076161 0.060869 -159.216995 -4.138119 -3.956821 -18.613667 15.968854 3.275181 1.165085 -11.846919 10.774315 1.898512 -0.088378 2.549200 10.765180 9.059123 -4.129368 -0.522771 -14.333543 -15.803391 -3.721735 
0.754945 43.921249 -0.669629 0.898439 -0.117173 4.949310 -18.310301 0.509160 -0.754278 23.615900 2.379420 -0.233900 13.737900 19.924601 -10.858600 13.995000 12.480000 -5.047030 2.000000 -2.000000 0.000000 -76.219101 -2.562410 -156.380997 37.842201 -0.322814 0.083932 0.066427 -0.060945 -159.246002 -2.000000 2.000000 0.000000 68.773102 -4.908660 -151.660995 -50.068802 0.302603 0.104841 -0.081919 0.073356 -164.128998 -4.214521 -3.774487 -18.231495 16.373280 3.299601 1.183481 -11.969495 10.239417 1.769350 -0.458070 2.879230 10.736056 10.225511 -4.092993 -0.606017 -14.922398 -15.885271 -3.929097 
0.758338 43.891308 -0.703458 0.625032 0.576138 4.957550 -17.675100 0.368702 -0.711149 24.310499 2.592090 -0.230112 12.666900 19.867001 -10.992700 13.516400 12.527300 -5.048140 2.000000 -2.000000 0.000000 -72.867798 -3.564240 -154.524002 40.439899 -0.318902 0.088739 0.069865 -0.068723 -162.283005 -2.000000 2.000000 0.000000 65.205299 -4.211150 -148.955002 -53.193802 0.296757 0.109469 -0.079957 0.096640 -169.705002 -3.905210 -4.470882 -17.935610 16.321009 3.263396 1.189372 -11.812912 10.160668 1.746463 -0.720803 2.307312 10.769332 11.665955 -4.103204 -0.710448 -15.807215 -15.973131 -4.220180 
0.746492 43.866760 -0.759016 0.312523 0.693349 5.140620 -17.186399 0.390956 -0.845371 24.721701 2.766120 -0.286690 11.827000 19.860500 -10.985900 13.099500 12.619800 -5.019840 2.000000 -2.000000 0.000000 -69.242401 -4.692100 -152.197006 42.441799 -0.315741 0.092319 0.074657 -0.087799 -166.022995 -2.000000 2.000000 0.000000 61.246300 -3.533530 -145.983994 -56.113800 0.291075 0.113499 179.908997 179.897995 3.703340 -3.671125 -4.550863 -17.798796 16.366083 3.287584 1.191640 -11.800297 9.876429 1.667171 -1.120764 2.319692 10.594085 13.065035 -4.053492 -0.809545 -16.488461 -16.043703 -4.428933 
0.751191 43.851082 -0.806243 0.068368 0.898437 5.167240 -16.776100 0.308194 -0.815469 25.102800 2.716050 -0.281950 11.225000 19.759899 -10.961500 12.749400 12.632200 -4.999030 2.000000 -2.000000 0.000000 -65.060303 -5.839690 -149.919998 44.307098 -0.312684 0.095554 0.070683 -0.087632 -170.026993 -2.000000 2.000000 0.000000 57.375702 -2.532350 -143.578995 -58.340302 0.286608 0.116375 179.897003 179.884995 -2.810330 -3.565313 -4.782680 -17.551451 16.582808 3.297243 1.181469 -11.876424 9.686328 1.611238 -1.207255 2.141521 10.587455 13.823771 -4.050183 -0.875604 -16.989180 -16.054970 -4.573971 
0.740413 43.840801 -0.867140 0.000000 1.035160 5.224590 -16.346100 0.276969 -0.842410 25.640699 2.762540 -0.291246 10.429700 19.635799 -10.938900 12.289700 12.657500 -4.980910 2.000000 -2.000000 0.000000 -60.634201 -7.183070 -147.828003 45.791500 -0.310178 0.098056 -179.921997 -179.901993 5.549030 -2.000000 2.000000 0.000000 53.496300 -1.744530 -141.897995 -60.342300 0.282499 0.118811 -0.115000 0.125587 171.565002 -3.580338 -4.881795 -17.425146 16.580097 3.263801 1.196318 -11.678666 9.333258 1.522012 -1.426191 2.061040 10.562896 14.407684 -4.038839 -0.911883 -17.260860 -16.012690 -4.673715 
0.732048 43.831043 -0.940193 -0.097670 0.966795 5.369450 -16.062401 0.277560 -0.951158 25.894899 2.761430 -0.337605 9.859600 19.587601 -10.828400 11.931500 12.727200 -4.944850 2.000000 -2.000000 0.000000 -56.101002 -8.205020 -146.108002 47.217300 -0.307710 0.100397 -179.912994 -179.882004 0.470928 -2.000000 2.000000 0.000000 49.401901 -1.152000 -140.188004 -62.158699 0.278699 0.120896 -0.128620 0.135300 165.587997 -3.750686 -4.804681 -17.304876 16.942276 3.250317 1.229916 -11.882119 9.164814 1.520790 -1.555632 2.162802 10.427708 14.671964 -4.001368 -0.926430 -17.366331 -16.005690 -4.754553 
0.721577 43.813042 -1.009910 -0.087903 0.966796 5.555160 -15.817800 0.337930 -1.066770 26.159700 2.925430 -0.377068 9.351740 19.493000 -10.724200 11.593400 12.805600 -4.921370 2.000000 -2.000000 0.000000 -51.548599 -9.364350 -144.688995 48.418400 -0.305586 0.102321 -179.903000 -179.871994 -4.558370 -2.000000 2.000000 0.000000 45.014099 -0.169129 -138.272003 -63.555199 0.275734 0.122416 -0.143103 0.143506 159.641006 -4.003784 -4.810962 -17.216696 17.189194 3.263031 1.249049 -11.868993 8.909679 1.456348 -1.680488 2.138784 10.267951 14.832546 -3.974273 -0.961598 -17.565639 -15.932195 -4.800224 
